<svg width="724.366" height="105.03" viewBox="0 0 724.366 105.03" xmlns="http://www.w3.org/2000/svg"><g id="svgGroup" stroke-linecap="round" fill-rule="evenodd" font-size="9pt" stroke="#000" stroke-width="0.25mm" fill="black" style="stroke:#000;stroke-width:0.25mm;fill:black"><path d="M 203.467 91.016 L 197.266 87.647 A 37.017 37.017 0 0 0 198.861 84.408 A 46.5 46.5 0 0 0 199.854 81.934 A 83.19 83.19 0 0 0 201.629 76.551 A 93.193 93.193 0 0 0 202.002 75.244 Q 202.979 71.729 203.711 68.018 Q 204.444 64.307 204.956 60.62 A 107.426 107.426 0 0 0 205.648 54.337 A 96.918 96.918 0 0 0 205.713 53.467 A 100.381 100.381 0 0 0 205.922 49.355 A 81.529 81.529 0 0 0 205.957 46.973 A 67.832 67.832 0 0 0 205.933 45.191 A 86.136 86.136 0 0 0 205.86 43.262 Q 205.762 41.26 205.445 39.258 A 22.374 22.374 0 0 0 204.493 35.425 A 11.83 11.83 0 0 0 203.123 32.66 A 10.897 10.897 0 0 0 202.759 32.153 A 8.123 8.123 0 0 0 200.025 29.859 A 7.259 7.259 0 0 0 198.007 29.174 Q 197.144 29.009 196.158 29.004 A 12.244 12.244 0 0 0 196.094 29.004 A 7.025 7.025 0 0 0 194.133 29.267 A 5.729 5.729 0 0 0 192.261 30.2 A 10.068 10.068 0 0 0 190.142 32.393 A 12.115 12.115 0 0 0 189.551 33.301 A 16.703 16.703 0 0 0 188.226 36.15 A 20.027 20.027 0 0 0 187.769 37.598 A 38.262 38.262 0 0 0 186.768 42.407 Q 186.426 44.824 186.304 47.022 Q 186.22 48.532 186.194 49.72 A 46.021 46.021 0 0 0 186.182 50.733 L 186.182 79.004 L 169.727 79.004 L 169.727 52.735 A 149.541 149.541 0 0 1 169.734 51.353 Q 169.745 50.119 169.776 48.609 A 53.724 53.724 0 0 0 169.787 47.523 Q 169.787 45.606 169.654 43.555 Q 169.483 40.918 169.019 38.306 A 19.495 19.495 0 0 0 168.329 35.549 A 15.546 15.546 0 0 0 167.554 33.643 Q 166.553 31.592 164.844 30.298 A 6.243 6.243 0 0 0 162.258 29.164 A 8.734 8.734 0 0 0 160.547 29.004 A 6.542 6.542 0 0 0 158.76 29.238 A 5.192 5.192 0 0 0 156.861 30.225 A 9.391 9.391 0 0 0 154.972 32.345 A 11.535 11.535 0 0 0 154.371 33.374 A 17.25 17.25 0 0 0 153.246 36.116 A 21.176 21.176 0 0 0 152.808 37.72 A 41.692 41.692 0 0 0 151.978 42.554 A 55.694 55.694 0 0 0 151.728 45.48 A 47.034 47.034 0 0 0 151.661 47.144 A 259.697 259.697 0 0 0 151.639 48.183 Q 151.614 49.572 151.612 50.59 A 85.389 85.389 0 0 0 151.612 50.733 L 151.612 79.004 L 135.059 79.004 L 135.059 22.608 L 141.407 22.608 L 147.461 35.742 Q 149.512 28.906 153.931 25.073 A 15.114 15.114 0 0 1 160.396 21.825 Q 162.813 21.24 165.674 21.24 A 26.368 26.368 0 0 1 170.302 21.625 Q 173.082 22.121 175.336 23.255 A 15.358 15.358 0 0 1 176.612 23.975 A 15.151 15.151 0 0 1 180.803 27.979 Q 182.317 30.068 183.448 32.861 A 31.047 31.047 0 0 1 185.647 29.278 A 27.007 27.007 0 0 1 186.597 28.028 A 19.579 19.579 0 0 1 190.191 24.557 A 18.331 18.331 0 0 1 190.455 24.365 A 16.519 16.519 0 0 1 195.166 22.046 A 17.734 17.734 0 0 1 198.703 21.344 A 22.149 22.149 0 0 1 200.879 21.24 A 29.628 29.628 0 0 1 205.283 21.551 Q 207.732 21.919 209.79 22.725 A 17.202 17.202 0 0 1 210.718 23.12 A 18.133 18.133 0 0 1 215.903 26.658 A 16.974 16.974 0 0 1 217.383 28.32 A 20.324 20.324 0 0 1 220.466 33.993 A 24.757 24.757 0 0 1 221.143 36.206 A 37.476 37.476 0 0 1 222.2 42.841 A 45.286 45.286 0 0 1 222.315 46.094 A 54.746 54.746 0 0 1 221.578 54.891 A 64.339 64.339 0 0 1 220.948 58.203 A 72.52 72.52 0 0 1 217.115 70.484 Q 214.649 76.465 211.182 81.787 A 50.391 50.391 0 0 1 206.046 88.436 A 43.863 43.863 0 0 1 203.467 91.016 Z M 637.745 91.016 L 631.543 87.647 A 37.017 37.017 0 0 0 633.139 84.408 A 46.5 46.5 0 0 0 634.131 81.934 A 83.19 83.19 0 0 0 635.907 76.551 A 93.193 93.193 0 0 0 636.28 75.244 Q 637.256 71.729 637.989 68.018 Q 638.721 64.307 639.234 60.62 A 107.426 107.426 0 0 0 639.925 54.337 A 96.918 96.918 0 0 0 639.991 53.467 A 100.381 100.381 0 0 0 640.199 49.355 A 81.529 81.529 0 0 0 640.235 46.973 A 67.832 67.832 0 0 0 640.21 45.191 A 86.136 86.136 0 0 0 640.137 43.262 Q 640.039 41.26 639.722 39.258 A 22.374 22.374 0 0 0 638.77 35.425 A 11.83 11.83 0 0 0 637.401 32.66 A 10.897 10.897 0 0 0 637.037 32.153 A 8.123 8.123 0 0 0 634.302 29.859 A 7.259 7.259 0 0 0 632.285 29.174 Q 631.421 29.009 630.435 29.004 A 12.244 12.244 0 0 0 630.372 29.004 A 7.025 7.025 0 0 0 628.411 29.267 A 5.729 5.729 0 0 0 626.539 30.2 A 10.068 10.068 0 0 0 624.419 32.393 A 12.115 12.115 0 0 0 623.829 33.301 A 16.703 16.703 0 0 0 622.504 36.15 A 20.027 20.027 0 0 0 622.046 37.598 A 38.262 38.262 0 0 0 621.045 42.407 Q 620.704 44.824 620.581 47.022 Q 620.498 48.532 620.471 49.72 A 46.021 46.021 0 0 0 620.459 50.733 L 620.459 79.004 L 604.004 79.004 L 604.004 52.735 A 149.541 149.541 0 0 1 604.011 51.353 Q 604.023 50.119 604.053 48.609 A 53.724 53.724 0 0 0 604.064 47.523 Q 604.064 45.606 603.931 43.555 Q 603.76 40.918 603.296 38.306 A 19.495 19.495 0 0 0 602.606 35.549 A 15.546 15.546 0 0 0 601.831 33.643 Q 600.83 31.592 599.122 30.298 A 6.243 6.243 0 0 0 596.536 29.164 A 8.734 8.734 0 0 0 594.825 29.004 A 6.542 6.542 0 0 0 593.038 29.238 A 5.192 5.192 0 0 0 591.138 30.225 A 9.391 9.391 0 0 0 589.25 32.345 A 11.535 11.535 0 0 0 588.648 33.374 A 17.25 17.25 0 0 0 587.523 36.116 A 21.176 21.176 0 0 0 587.085 37.72 A 41.692 41.692 0 0 0 586.255 42.554 A 55.694 55.694 0 0 0 586.005 45.48 A 47.034 47.034 0 0 0 585.938 47.144 A 259.697 259.697 0 0 0 585.917 48.183 Q 585.891 49.572 585.889 50.59 A 85.389 85.389 0 0 0 585.889 50.733 L 585.889 79.004 L 569.336 79.004 L 569.336 22.608 L 575.684 22.608 L 581.739 35.742 Q 583.789 28.906 588.208 25.073 A 15.114 15.114 0 0 1 594.673 21.825 Q 597.091 21.24 599.952 21.24 A 26.368 26.368 0 0 1 604.58 21.625 Q 607.359 22.121 609.613 23.255 A 15.358 15.358 0 0 1 610.889 23.975 A 15.151 15.151 0 0 1 615.081 27.979 Q 616.594 30.068 617.725 32.861 A 31.047 31.047 0 0 1 619.925 29.278 A 27.007 27.007 0 0 1 620.874 28.028 A 19.579 19.579 0 0 1 624.468 24.557 A 18.331 18.331 0 0 1 624.732 24.365 A 16.519 16.519 0 0 1 629.444 22.046 A 17.734 17.734 0 0 1 632.98 21.344 A 22.149 22.149 0 0 1 635.157 21.24 A 29.628 29.628 0 0 1 639.56 21.551 Q 642.009 21.919 644.067 22.725 A 17.202 17.202 0 0 1 644.996 23.12 A 18.133 18.133 0 0 1 650.181 26.658 A 16.974 16.974 0 0 1 651.661 28.32 A 20.324 20.324 0 0 1 654.743 33.993 A 24.757 24.757 0 0 1 655.42 36.206 A 37.476 37.476 0 0 1 656.478 42.841 A 45.286 45.286 0 0 1 656.592 46.094 A 54.746 54.746 0 0 1 655.855 54.891 A 64.339 64.339 0 0 1 655.225 58.203 A 72.52 72.52 0 0 1 651.392 70.484 Q 648.926 76.465 645.459 81.787 A 50.391 50.391 0 0 1 640.323 88.436 A 43.863 43.863 0 0 1 637.745 91.016 Z M 724.366 22.608 L 724.366 72.217 A 40.375 40.375 0 0 1 723.057 82.603 A 37.04 37.04 0 0 1 722.364 84.912 Q 720.362 90.869 716.553 95.337 A 27.545 27.545 0 0 1 707.203 102.417 A 27.221 27.221 0 0 1 699.061 104.748 A 34.65 34.65 0 0 1 694.58 105.029 Q 690.674 105.029 686.695 104.151 A 30.705 30.705 0 0 1 679.175 101.441 A 25.472 25.472 0 0 1 672.828 96.802 A 20.601 20.601 0 0 1 668.409 90.186 L 675.538 87.5 A 18.572 18.572 0 0 0 677.955 91.895 Q 679.444 93.897 681.397 95.337 A 15.901 15.901 0 0 0 685.694 97.583 Q 688.038 98.389 690.625 98.389 Q 695.049 98.389 698.171 96.746 A 11.889 11.889 0 0 0 698.804 96.387 Q 702.1 94.385 704.102 91.162 A 22.099 22.099 0 0 0 706.545 85.605 A 26.015 26.015 0 0 0 706.983 83.862 A 39.164 39.164 0 0 0 707.862 75.586 L 707.862 72.266 A 19.328 19.328 0 0 1 703.761 76.439 A 17.241 17.241 0 0 1 700.806 78.198 A 20.756 20.756 0 0 1 693.007 80.095 A 24.459 24.459 0 0 1 691.748 80.127 A 30.981 30.981 0 0 1 685.331 79.489 A 24.827 24.827 0 0 1 680.225 77.832 A 25.09 25.09 0 0 1 671.631 71.558 A 27.221 27.221 0 0 1 666.623 63.202 A 31.324 31.324 0 0 1 666.26 62.207 A 34.364 34.364 0 0 1 664.45 52.587 A 39.636 39.636 0 0 1 664.405 50.684 Q 664.405 44.531 666.26 39.16 A 28.127 28.127 0 0 1 670.173 31.617 A 26.041 26.041 0 0 1 671.631 29.81 A 25.09 25.09 0 0 1 680.225 23.535 A 25.67 25.67 0 0 1 687.479 21.512 A 32.608 32.608 0 0 1 691.748 21.24 A 19.706 19.706 0 0 1 697.974 22.217 A 19.801 19.801 0 0 1 703.394 24.976 A 20.135 20.135 0 0 1 707.74 29.273 A 20.632 20.632 0 0 1 710.694 34.863 L 718.018 22.608 L 724.366 22.608 Z M 249.805 72.266 L 249.805 105.029 L 233.301 105.029 L 233.301 22.608 L 239.649 22.608 L 246.973 34.863 A 20.632 20.632 0 0 1 249.927 29.273 Q 251.807 26.758 254.273 24.976 A 19.801 19.801 0 0 1 259.693 22.217 Q 262.647 21.24 265.918 21.24 A 30.981 30.981 0 0 1 272.336 21.879 A 24.827 24.827 0 0 1 277.442 23.535 A 25.09 25.09 0 0 1 286.036 29.81 A 27.221 27.221 0 0 1 291.044 38.165 A 31.324 31.324 0 0 1 291.407 39.16 A 34.364 34.364 0 0 1 293.217 48.78 A 39.636 39.636 0 0 1 293.262 50.684 Q 293.262 56.836 291.407 62.207 A 28.127 28.127 0 0 1 287.494 69.75 A 26.041 26.041 0 0 1 286.036 71.558 A 25.09 25.09 0 0 1 277.442 77.832 A 25.67 25.67 0 0 1 270.188 79.856 A 32.608 32.608 0 0 1 265.918 80.127 A 21.965 21.965 0 0 1 259.518 79.216 A 19.867 19.867 0 0 1 256.861 78.198 A 17.923 17.923 0 0 1 250.653 73.351 A 21.594 21.594 0 0 1 249.805 72.266 Z M 55.323 36.572 L 48.194 39.404 A 18.008 18.008 0 0 0 46.174 35.048 A 14.383 14.383 0 0 0 42.481 31.153 A 15.229 15.229 0 0 0 35.446 28.435 A 19.856 19.856 0 0 0 32.862 28.272 A 16.465 16.465 0 0 0 29.999 28.51 A 12.677 12.677 0 0 0 27.466 29.224 A 13.307 13.307 0 0 0 23.316 31.836 A 16.035 16.035 0 0 0 20.289 35.694 Q 19.043 37.891 18.262 40.381 A 29.897 29.897 0 0 0 17.139 45.532 Q 16.797 48.194 16.797 50.684 Q 16.797 53.369 17.09 56.104 Q 17.383 58.838 18.091 61.353 Q 18.799 63.867 19.971 66.04 A 14.043 14.043 0 0 0 22.925 69.824 Q 24.707 71.436 27.173 72.363 A 14.042 14.042 0 0 0 30.097 73.101 A 19.15 19.15 0 0 0 32.862 73.291 Q 35.45 73.291 37.793 72.51 Q 40.137 71.729 42.09 70.313 A 16.985 16.985 0 0 0 45.557 66.944 Q 47.071 64.99 47.95 62.598 L 55.127 65.235 A 22.449 22.449 0 0 1 52.157 70.382 A 20.333 20.333 0 0 1 50.855 71.9 A 24.153 24.153 0 0 1 44.825 76.538 Q 41.455 78.369 37.598 79.248 Q 33.741 80.127 29.786 80.127 A 33.085 33.085 0 0 1 21.249 79.053 A 29.638 29.638 0 0 1 17.92 77.954 Q 12.452 75.781 8.472 71.851 A 28.158 28.158 0 0 1 2.247 62.525 A 29.495 29.495 0 0 1 0.108 53.453 A 35.139 35.139 0 0 1 0 50.684 A 33.096 33.096 0 0 1 0.868 42.986 A 28.571 28.571 0 0 1 2.222 38.77 A 27.763 27.763 0 0 1 8.153 29.689 A 26.891 26.891 0 0 1 8.399 29.444 A 27.503 27.503 0 0 1 17.482 23.525 A 31.342 31.342 0 0 1 17.823 23.389 A 31.341 31.341 0 0 1 26.993 21.343 A 37.347 37.347 0 0 1 29.786 21.24 A 35.426 35.426 0 0 1 37.793 22.144 A 27.237 27.237 0 0 1 45.044 24.927 Q 48.389 26.807 51.05 29.688 A 21.569 21.569 0 0 1 54.567 34.874 A 25.498 25.498 0 0 1 55.323 36.572 Z M 473.34 62.598 L 480.469 65.235 Q 478.858 69.092 476.05 71.9 A 25.472 25.472 0 0 1 469.703 76.538 Q 466.163 78.369 462.183 79.248 Q 458.204 80.127 454.297 80.127 Q 447.852 80.127 442.383 77.954 A 28.16 28.16 0 0 1 433.972 72.825 A 26.81 26.81 0 0 1 432.959 71.875 A 27.969 27.969 0 0 1 426.829 62.718 A 31.812 31.812 0 0 1 426.758 62.549 A 29.805 29.805 0 0 1 424.598 53.162 A 35.365 35.365 0 0 1 424.512 50.684 A 32.299 32.299 0 0 1 425.479 42.666 A 28.369 28.369 0 0 1 426.758 38.819 A 28.139 28.139 0 0 1 432.442 30.018 A 27.068 27.068 0 0 1 432.959 29.492 Q 436.914 25.586 442.383 23.413 A 31.119 31.119 0 0 1 451.915 21.317 A 36.696 36.696 0 0 1 454.297 21.24 A 47.962 47.962 0 0 1 460.592 21.666 A 52.337 52.337 0 0 1 460.694 21.68 A 38.978 38.978 0 0 1 467.041 23.071 A 30.708 30.708 0 0 1 472.852 25.537 Q 475.586 27.051 477.613 29.273 Q 479.639 31.494 480.835 34.424 Q 482.032 37.354 482.032 41.113 A 18.312 18.312 0 0 1 481.751 44.391 A 14.172 14.172 0 0 1 480.909 47.29 A 15.591 15.591 0 0 1 477.857 52.051 Q 475.928 54.102 473.389 55.518 Q 470.85 56.934 467.969 57.837 A 34.375 34.375 0 0 1 462.037 59.131 A 47.3 47.3 0 0 1 456.827 59.516 A 42.972 42.972 0 0 1 456.104 59.522 A 50.695 50.695 0 0 1 448.877 59.009 Q 445.313 58.496 441.846 57.373 Q 442.383 60.596 443.555 63.501 A 17.427 17.427 0 0 0 445.919 67.666 A 16.021 16.021 0 0 0 446.68 68.579 A 13.876 13.876 0 0 0 450.962 71.776 A 16.063 16.063 0 0 0 451.49 72.022 Q 454.262 73.254 458.024 73.29 A 23.758 23.758 0 0 0 458.252 73.291 Q 460.84 73.291 463.184 72.51 Q 465.528 71.729 467.481 70.313 Q 469.434 68.897 470.923 66.944 A 17.639 17.639 0 0 0 473.34 62.598 Z M 360.645 22.608 L 360.645 79.004 L 344.141 79.004 L 344.141 72.266 A 19.328 19.328 0 0 1 340.04 76.439 A 17.241 17.241 0 0 1 337.085 78.198 A 20.756 20.756 0 0 1 329.286 80.095 A 24.459 24.459 0 0 1 328.028 80.127 A 30.981 30.981 0 0 1 321.61 79.489 A 24.827 24.827 0 0 1 316.504 77.832 A 25.09 25.09 0 0 1 307.911 71.558 A 27.221 27.221 0 0 1 302.902 63.202 A 31.324 31.324 0 0 1 302.539 62.207 A 34.364 34.364 0 0 1 300.729 52.587 A 39.636 39.636 0 0 1 300.684 50.684 Q 300.684 44.531 302.539 39.16 A 28.127 28.127 0 0 1 306.452 31.617 A 26.041 26.041 0 0 1 307.911 29.81 A 25.09 25.09 0 0 1 316.504 23.535 A 25.67 25.67 0 0 1 323.758 21.512 A 32.608 32.608 0 0 1 328.028 21.24 A 19.706 19.706 0 0 1 334.253 22.217 A 19.801 19.801 0 0 1 339.673 24.976 A 20.135 20.135 0 0 1 344.019 29.273 A 20.632 20.632 0 0 1 346.973 34.863 L 354.297 22.608 L 360.645 22.608 Z M 422.364 27.588 L 413.086 42.969 A 53.039 53.039 0 0 0 412.508 41.166 Q 412.198 40.252 411.827 39.251 A 89.107 89.107 0 0 0 411.573 38.574 A 24.459 24.459 0 0 0 409.278 34.009 A 13.827 13.827 0 0 0 406.301 30.674 A 13.113 13.113 0 0 0 406.006 30.445 A 7.086 7.086 0 0 0 401.612 29.004 A 7.552 7.552 0 0 0 399.469 29.297 A 6.323 6.323 0 0 0 397.632 30.176 Q 395.948 31.348 394.776 33.228 Q 393.604 35.108 392.847 37.476 Q 392.09 39.844 391.675 42.261 Q 391.26 44.678 391.114 46.9 A 79.608 79.608 0 0 0 391.024 48.48 Q 390.989 49.258 390.975 49.944 A 40.371 40.371 0 0 0 390.967 50.733 L 390.967 79.004 L 374.414 79.004 L 374.414 22.608 L 380.762 22.608 L 387.452 35.742 A 38.339 38.339 0 0 1 389.879 31.01 A 34.136 34.136 0 0 1 390.577 29.907 A 21.466 21.466 0 0 1 394.064 25.811 A 19.919 19.919 0 0 1 394.629 25.318 A 17.38 17.38 0 0 1 399.83 22.315 A 17.016 17.016 0 0 1 403.546 21.418 A 22.096 22.096 0 0 1 406.397 21.24 A 27.09 27.09 0 0 1 408.411 21.32 Q 409.44 21.397 410.572 21.548 A 43.487 43.487 0 0 1 410.645 21.558 A 24.738 24.738 0 0 1 415.235 22.632 A 18.747 18.747 0 0 1 419.385 24.61 A 9.84 9.84 0 0 1 421.441 26.345 A 8.65 8.65 0 0 1 422.364 27.588 Z M 124.053 56.723 A 29.309 29.309 0 0 0 124.659 50.684 A 31.605 31.605 0 0 0 124.64 49.605 A 27.931 27.931 0 0 0 123.487 42.456 A 28.839 28.839 0 0 0 120.24 35.303 Q 118.164 32.031 115.235 29.419 Q 112.305 26.807 108.814 25 A 33.626 33.626 0 0 0 101.343 22.217 Q 97.364 21.24 93.164 21.24 A 33.891 33.891 0 0 0 85.01 22.217 A 33.73 33.73 0 0 0 77.564 25 A 31.056 31.056 0 0 0 71.143 29.419 A 27.81 27.81 0 0 0 66.138 35.303 A 28.839 28.839 0 0 0 62.891 42.456 A 26.414 26.414 0 0 0 62.493 43.928 A 28.867 28.867 0 0 0 61.719 50.684 A 31.605 31.605 0 0 0 61.737 51.763 A 27.931 27.931 0 0 0 62.891 58.911 A 28.839 28.839 0 0 0 66.138 66.065 Q 68.213 69.336 71.143 71.948 Q 74.073 74.561 77.564 76.367 A 33.73 33.73 0 0 0 85.01 79.151 Q 88.965 80.127 93.164 80.127 A 34.191 34.191 0 0 0 101.343 79.151 Q 105.323 78.174 108.814 76.367 A 31.056 31.056 0 0 0 115.235 71.948 A 27.81 27.81 0 0 0 120.24 66.065 A 28.942 28.942 0 0 0 123.487 58.936 A 26 26 0 0 0 124.053 56.723 Z M 555.518 22.656 L 555.518 79.004 L 538.965 79.004 L 538.965 22.656 L 555.518 22.656 Z M 107.862 50.684 A 46.032 46.032 0 0 0 107.735 47.334 A 54.588 54.588 0 0 0 107.593 45.728 A 35.933 35.933 0 0 0 106.69 40.601 Q 106.055 38.086 104.956 35.767 A 16.385 16.385 0 0 0 103.02 32.617 A 14.691 14.691 0 0 0 102.247 31.714 Q 100.635 29.981 98.389 28.931 A 10.927 10.927 0 0 0 95.464 28.054 A 14.632 14.632 0 0 0 93.164 27.881 A 12.779 12.779 0 0 0 90.491 28.15 A 10.185 10.185 0 0 0 88.135 28.955 A 12.762 12.762 0 0 0 84.302 31.812 Q 82.666 33.594 81.568 35.938 Q 80.469 38.281 79.786 40.796 A 34.086 34.086 0 0 0 78.809 45.874 A 46.081 46.081 0 0 0 78.561 48.881 A 37.404 37.404 0 0 0 78.516 50.684 A 39.292 39.292 0 0 0 78.63 53.615 A 48.361 48.361 0 0 0 78.809 55.493 A 34.806 34.806 0 0 0 79.786 60.596 Q 80.469 63.135 81.568 65.454 A 16.529 16.529 0 0 0 84 69.217 A 15.458 15.458 0 0 0 84.302 69.556 A 12.762 12.762 0 0 0 88.135 72.412 A 10.508 10.508 0 0 0 91.374 73.371 A 13.44 13.44 0 0 0 93.164 73.486 A 13.898 13.898 0 0 0 95.883 73.232 A 10.734 10.734 0 0 0 98.34 72.437 A 12.437 12.437 0 0 0 102.222 69.629 A 15.598 15.598 0 0 0 104.898 65.648 A 17.424 17.424 0 0 0 104.932 65.576 Q 106.006 63.281 106.665 60.742 Q 107.325 58.203 107.593 55.615 A 50.255 50.255 0 0 0 107.836 52.172 A 42.96 42.96 0 0 0 107.862 50.684 Z M 344.043 50.684 A 49.251 49.251 0 0 0 343.94 47.547 A 58.011 58.011 0 0 0 343.824 46.045 A 37.317 37.317 0 0 0 343.067 41.211 Q 342.53 38.819 341.578 36.646 A 14.693 14.693 0 0 0 339.229 32.894 A 13.937 13.937 0 0 0 339.136 32.788 Q 337.647 31.104 335.547 30.127 A 10.252 10.252 0 0 0 332.813 29.312 A 13.735 13.735 0 0 0 330.664 29.151 A 13.033 13.033 0 0 0 328.293 29.356 A 9.543 9.543 0 0 0 325.83 30.152 Q 323.78 31.153 322.315 32.837 A 14.704 14.704 0 0 0 320.112 36.244 A 16.708 16.708 0 0 0 319.898 36.719 Q 318.946 38.916 318.409 41.309 A 37.391 37.391 0 0 0 317.652 46.118 A 54.132 54.132 0 0 0 317.463 49.035 A 45.06 45.06 0 0 0 317.432 50.684 A 47.674 47.674 0 0 0 317.518 53.484 A 58.063 58.063 0 0 0 317.652 55.274 A 37.317 37.317 0 0 0 318.409 60.108 Q 318.946 62.5 319.898 64.697 A 15.178 15.178 0 0 0 321.784 67.93 A 13.89 13.89 0 0 0 322.315 68.579 A 10.998 10.998 0 0 0 325.83 71.265 A 9.582 9.582 0 0 0 328.369 72.074 A 13.107 13.107 0 0 0 330.664 72.266 A 10.485 10.485 0 0 0 333.204 71.97 A 8.66 8.66 0 0 0 335.181 71.216 A 11.711 11.711 0 0 0 338.648 68.408 A 16.971 16.971 0 0 0 340.899 64.958 A 19.154 19.154 0 0 0 341.163 64.404 A 29.147 29.147 0 0 0 342.823 59.766 A 35.595 35.595 0 0 0 343.75 55.005 A 41.141 41.141 0 0 0 343.97 52.741 A 30.463 30.463 0 0 0 344.043 50.684 Z M 707.764 50.684 A 49.251 49.251 0 0 0 707.66 47.547 A 58.011 58.011 0 0 0 707.544 46.045 A 37.317 37.317 0 0 0 706.788 41.211 Q 706.25 38.819 705.298 36.646 A 14.693 14.693 0 0 0 702.949 32.894 A 13.937 13.937 0 0 0 702.857 32.788 Q 701.368 31.104 699.268 30.127 A 10.252 10.252 0 0 0 696.534 29.312 A 13.735 13.735 0 0 0 694.385 29.151 A 13.033 13.033 0 0 0 692.013 29.356 A 9.543 9.543 0 0 0 689.551 30.152 Q 687.5 31.153 686.036 32.837 A 14.704 14.704 0 0 0 683.833 36.244 A 16.708 16.708 0 0 0 683.619 36.719 Q 682.666 38.916 682.129 41.309 A 37.391 37.391 0 0 0 681.372 46.118 A 54.132 54.132 0 0 0 681.184 49.035 A 45.06 45.06 0 0 0 681.153 50.684 A 47.674 47.674 0 0 0 681.239 53.484 A 58.063 58.063 0 0 0 681.372 55.274 A 37.317 37.317 0 0 0 682.129 60.108 Q 682.666 62.5 683.619 64.697 A 15.178 15.178 0 0 0 685.504 67.93 A 13.89 13.89 0 0 0 686.036 68.579 A 10.998 10.998 0 0 0 689.551 71.265 A 9.582 9.582 0 0 0 692.09 72.074 A 13.107 13.107 0 0 0 694.385 72.266 A 10.485 10.485 0 0 0 696.924 71.97 A 8.66 8.66 0 0 0 698.902 71.216 A 11.711 11.711 0 0 0 702.369 68.408 A 16.971 16.971 0 0 0 704.62 64.958 A 19.154 19.154 0 0 0 704.883 64.404 A 29.147 29.147 0 0 0 706.543 59.766 A 35.595 35.595 0 0 0 707.471 55.005 A 41.141 41.141 0 0 0 707.691 52.741 A 30.463 30.463 0 0 0 707.764 50.684 Z M 276.514 50.684 A 47.192 47.192 0 0 0 276.428 47.893 A 56.636 56.636 0 0 0 276.294 46.118 A 37.391 37.391 0 0 0 275.538 41.309 Q 275 38.916 274.048 36.719 A 15.178 15.178 0 0 0 272.163 33.487 A 13.89 13.89 0 0 0 271.631 32.837 Q 270.166 31.153 268.091 30.152 Q 266.016 29.151 263.282 29.151 A 13.857 13.857 0 0 0 260.949 29.337 Q 259.542 29.578 258.374 30.127 A 10.893 10.893 0 0 0 254.81 32.788 A 14.639 14.639 0 0 0 252.398 36.578 A 16.354 16.354 0 0 0 252.369 36.646 A 24.975 24.975 0 0 0 250.879 41.211 A 37.317 37.317 0 0 0 250.122 46.045 Q 249.903 48.486 249.903 50.684 Q 249.903 52.637 250.196 55.005 A 35.595 35.595 0 0 0 251.123 59.766 Q 251.758 62.158 252.784 64.404 A 17.509 17.509 0 0 0 254.8 67.79 A 16.001 16.001 0 0 0 255.298 68.408 A 11.711 11.711 0 0 0 258.765 71.216 A 8.974 8.974 0 0 0 261.898 72.183 A 11.24 11.24 0 0 0 263.282 72.266 A 13.033 13.033 0 0 0 265.654 72.06 A 9.543 9.543 0 0 0 268.116 71.265 Q 270.166 70.264 271.631 68.579 A 14.704 14.704 0 0 0 273.834 65.172 A 16.708 16.708 0 0 0 274.048 64.697 Q 275 62.5 275.538 60.108 A 37.317 37.317 0 0 0 276.294 55.274 A 55.301 55.301 0 0 0 276.483 52.336 A 45.34 45.34 0 0 0 276.514 50.684 Z M 441.358 52.246 Q 444.385 52.93 447.413 53.32 Q 450.44 53.711 453.516 53.711 A 29.926 29.926 0 0 0 457.271 53.484 A 24.588 24.588 0 0 0 459.497 53.101 A 14.235 14.235 0 0 0 462.369 52.151 A 11.761 11.761 0 0 0 464.283 51.05 A 9.877 9.877 0 0 0 467.254 47.657 A 11.676 11.676 0 0 0 467.481 47.217 A 10.701 10.701 0 0 0 468.322 44.716 Q 468.57 43.544 468.632 42.186 A 20.31 20.31 0 0 0 468.653 41.26 Q 468.653 38.379 467.872 35.986 A 11.843 11.843 0 0 0 466.52 33.141 A 10.477 10.477 0 0 0 465.552 31.885 A 10.497 10.497 0 0 0 461.977 29.315 A 12.108 12.108 0 0 0 461.768 29.224 A 11.673 11.673 0 0 0 459.009 28.454 A 15.93 15.93 0 0 0 456.543 28.272 A 12.995 12.995 0 0 0 453.667 28.578 A 10.707 10.707 0 0 0 451.539 29.297 A 12.986 12.986 0 0 0 447.632 32.056 Q 445.948 33.789 444.751 36.084 A 29.313 29.313 0 0 0 442.774 40.869 A 30.263 30.263 0 0 0 441.651 45.899 A 38.723 38.723 0 0 0 441.357 48.958 A 31.777 31.777 0 0 0 441.309 50.684 L 441.309 51.465 A 6.293 6.293 0 0 0 441.358 52.246 Z M 525.147 39.307 L 525.147 48.291 L 492.334 48.291 L 492.334 39.307 L 525.147 39.307 Z M 556.25 8.985 Q 556.25 10.84 555.542 12.5 A 9.045 9.045 0 0 1 553.614 15.381 A 9.045 9.045 0 0 1 550.733 17.31 Q 549.073 18.018 547.217 18.018 Q 545.362 18.018 543.726 17.31 A 9.12 9.12 0 0 1 540.87 15.381 A 9.045 9.045 0 0 1 538.941 12.5 Q 538.233 10.84 538.233 8.985 Q 538.233 7.129 538.941 5.493 A 9.12 9.12 0 0 1 540.87 2.637 A 9.12 9.12 0 0 1 543.726 0.708 Q 545.362 0 547.217 0 Q 549.073 0 550.733 0.708 A 9.045 9.045 0 0 1 553.614 2.637 A 9.12 9.12 0 0 1 555.542 5.493 Q 556.25 7.129 556.25 8.985 Z" vector-effect="non-scaling-stroke"/></g></svg>